<svg xmlns="http://www.w3.org/2000/svg" viewBox="0 0 24 24" fill="none" stroke="currentColor" stroke-width="2" stroke-linecap="round" stroke-linejoin="round">
  <!-- Settings/gear icon -->
  <circle cx="12" cy="12" r="3"/>
  <path d="M19.4,15 C19.2,15.5 19.3,16.1 19.6,16.6 L19.7,16.8 C19.9,17.1 20.0,17.4 20.0,17.7 C20.0,18.0 19.9,18.4 19.7,18.6 L18.4,19.9 C18.1,20.2 17.8,20.4 17.4,20.4 C17.1,20.4 16.8,20.3 16.5,20.1 L16.3,20.0 C15.8,19.7 15.2,19.6 14.7,19.8 C14.2,20.0 13.8,20.4 13.6,20.9 L13.5,21.1 C13.4,21.5 13.1,21.8 12.8,22.0 C12.5,22.2 12.1,22.3 11.8,22.3 L10.1,22.3 C9.8,22.3 9.4,22.2 9.1,22.0 C8.8,21.8 8.6,21.5 8.4,21.1 L8.3,20.9 C8.1,20.4 7.7,20.0 7.2,19.8 C6.7,19.6 6.1,19.7 5.6,20.0 L5.4,20.1 C5.1,20.3 4.8,20.4 4.5,20.4 C4.1,20.4 3.8,20.2 3.5,19.9 L2.2,18.6 C2.0,18.4 1.9,18.0 1.9,17.7 C1.9,17.4 2.0,17.1 2.2,16.8 L2.3,16.6 C2.6,16.1 2.7,15.5 2.5,15 C2.3,14.5 1.9,14.1 1.4,13.9 L1.2,13.8 C0.8,13.7 0.5,13.4 0.3,13.1 C0.1,12.8 0.0,12.4 0.0,12.1 L0.0,10.4 C0.0,10.1 0.1,9.7 0.3,9.4 C0.5,9.1 0.8,8.8 1.2,8.7 L1.4,8.6 C1.9,8.4 2.3,8.0 2.5,7.5 C2.7,7.0 2.6,6.4 2.3,5.9 L2.2,5.7 C2.0,5.4 1.9,5.1 1.9,4.8 C1.9,4.4 2.0,4.1 2.2,3.8 L3.5,2.5 C3.8,2.2 4.1,2.0 4.5,2.0 C4.8,2.0 5.1,2.1 5.4,2.3 L5.6,2.4 C6.1,2.7 6.7,2.8 7.2,2.6 C7.7,2.4 8.1,2.0 8.3,1.5 L8.4,1.3 C8.6,0.9 8.8,0.6 9.1,0.4 C9.4,0.2 9.8,0.1 10.1,0.1 L11.8,0.1 C12.1,0.1 12.5,0.2 12.8,0.4 C13.1,0.6 13.4,0.9 13.5,1.3 L13.6,1.5 C13.8,2.0 14.2,2.4 14.7,2.6 C15.2,2.8 15.8,2.7 16.3,2.4 L16.5,2.3 C16.8,2.1 17.1,2.0 17.4,2.0 C17.8,2.0 18.1,2.2 18.4,2.5 L19.7,3.8 C19.9,4.1 20.0,4.4 20.0,4.8 C20.0,5.1 19.9,5.4 19.7,5.7 L19.6,5.9 C19.3,6.4 19.2,7.0 19.4,7.5 C19.6,8.0 20.0,8.4 20.5,8.6 L20.7,8.7 C21.1,8.8 21.4,9.1 21.6,9.4 C21.8,9.7 21.9,10.1 21.9,10.4 L21.9,12.1 C21.9,12.4 21.8,12.8 21.6,13.1 C21.4,13.4 21.1,13.7 20.7,13.8 L20.5,13.9 C20.0,14.1 19.6,14.5 19.4,15 Z"/>
</svg>
